#N canvas 51 54 1315 714 10;
#X obj 511 352 dac~;
#X obj 445 -41 tgl 15 0 empty empty empty 17 7 0 10 -262144 -1 -1 1
1;
#X obj 408 322 *~ 0.7;
#X obj 378 7 metro 4000;
#X obj 402 205 delay 100;
#X obj 145 219 noise~;
#X obj 343 300 *~;
#X msg 323 226 1;
#X msg 357 229 0;
#X obj 161 278 lop~;
#X floatatom 197 200 5 0 0 0 - - -;
#X obj 237 268 hip~;
#X floatatom 267 194 5 0 0 0 - - -;
#X obj 492 226 t3_bpe;
#X obj 492 127 t b b;
#X obj 501 258 t3_line~ 0;
#X obj 492 187 f 0;
#X obj 545 63 t b f;
#X floatatom 541 7 5 0 0 0 - - -;
#X obj 545 111 pack 1 0.5 0 1.5;
#X obj 545 40 / 44.1;
#X msg 492 84 bang;
#X floatatom 413 124 5 0 0 0 - - -;
#X obj 413 142 / 44.1;
#X text 405 100 pre-delay;
#X text 637 67 samples;
#X floatatom 575 87 5 0 0 0 - - -;
#X text 671 133 msec;
#X msg 545 139 set \$1 \$2 \$3 \$4;
#X msg 545 181 1 3.10658 0 1.5;
#X text 584 -22 Короче \, я хуй знает \, короче
вот тут клик \, а слева;
#X text 159 -20 Сначала справа читать... Воот.
А тут короче пшик. Звучит прикольно;
#X obj 779 149 *~;
#X msg 807 109 1;
#X msg 872 107 0;
#X obj 758 216 *~ 0.7;
#X obj 721 73 osc~ 14000;
#X obj 817 48 delay 100;
#X obj 776 272 *~ 0.3;
#X obj 537 -38 metro 4000;
#X obj 637 11 delay 1200;
#X obj 91 102 phasor~ 1;
#X obj 476 25 loadbang;
#X floatatom 308 0 5 0 0 0 - - -;
#X obj 269 356 line~ 0 100;
#X connect 1 0 3 0;
#X connect 1 0 39 0;
#X connect 2 0 0 0;
#X connect 2 0 0 1;
#X connect 3 0 4 0;
#X connect 3 0 7 0;
#X connect 3 0 21 0;
#X connect 4 0 8 0;
#X connect 5 0 9 0;
#X connect 6 0 2 0;
#X connect 7 0 44 0;
#X connect 7 0 6 0;
#X connect 8 0 6 1;
#X connect 9 0 11 0;
#X connect 10 0 9 1;
#X connect 11 0 6 0;
#X connect 12 0 11 1;
#X connect 13 0 15 0;
#X connect 13 1 15 1;
#X connect 14 0 16 0;
#X connect 14 1 29 0;
#X connect 15 0 0 1;
#X connect 15 0 0 0;
#X connect 16 0 13 0;
#X connect 17 0 19 0;
#X connect 17 0 21 0;
#X connect 17 1 26 0;
#X connect 18 0 20 0;
#X connect 19 0 28 0;
#X connect 20 0 17 0;
#X connect 21 0 14 0;
#X connect 22 0 23 0;
#X connect 23 0 16 1;
#X connect 26 0 19 1;
#X connect 28 0 29 0;
#X connect 29 0 13 0;
#X connect 32 0 35 0;
#X connect 32 0 38 0;
#X connect 33 0 32 1;
#X connect 34 0 32 1;
#X connect 35 0 0 1;
#X connect 36 0 32 0;
#X connect 37 0 34 0;
#X connect 38 0 0 0;
#X connect 39 0 40 0;
#X connect 40 0 33 0;
#X connect 40 0 37 0;
#X connect 42 0 18 0;
#X connect 43 0 3 1;
