#N canvas 259 54 1315 714 10;
#N canvas 242 209 542 453 tom 0;
#X obj 141 -32 inlet;
#X obj 242 16 r pitch;
#X obj 208 180 vline~;
#X obj 112 173 +~;
#X obj 234 112 pack;
#X obj 209 84 random;
#X obj 205 53 bng 15 250 50 0 empty empty empty 17 7 0 10 -262144 -1
-1;
#X obj 107 221 osc~;
#X obj 104 355 outlet~;
#X obj 302 164 vline~;
#X msg 296 113 1 \$2 \, \$4 \$3 \$2;
#X msg 380 225 0 \$2;
#X obj 301 79 pack f f f f;
#X obj 298 46 r att;
#X obj 346 46 r dec;
#X obj 389 45 r sus;
#X obj 447 49 r inp1;
#X obj 404 179 pack f f;
#X obj 389 152 sel 0;
#X obj 83 107 mtof;
#X obj 118 294 *~;
#X obj 142 13 stripnote;
#X msg 232 136 \$1 \$2;
#X obj 300 13 r pitch-time;
#X connect 0 0 21 0;
#X connect 1 0 5 1;
#X connect 2 0 3 1;
#X connect 3 0 7 0;
#X connect 4 0 22 0;
#X connect 5 0 4 0;
#X connect 6 0 5 0;
#X connect 7 0 20 0;
#X connect 9 0 20 1;
#X connect 10 0 9 0;
#X connect 11 0 9 0;
#X connect 12 0 10 0;
#X connect 13 0 12 1;
#X connect 14 0 12 2;
#X connect 15 0 12 3;
#X connect 16 0 17 1;
#X connect 17 0 11 0;
#X connect 18 0 17 0;
#X connect 19 0 3 0;
#X connect 20 0 8 0;
#X connect 21 0 19 0;
#X connect 21 1 6 0;
#X connect 21 1 12 0;
#X connect 21 1 18 0;
#X connect 22 0 2 0;
#X connect 23 0 4 1;
#X restore 77 214 pd tom;
#X obj 70 51 sel 69 70 71;
#X obj 73 5 notein;
#X obj 74 101 poly 3 1;
#X obj 175 51 / 127;
#X obj 76 136 pack 0 0 0;
#N canvas 244 204 542 453 tom 0;
#X obj 141 -32 inlet;
#X obj 242 16 r pitch;
#X obj 208 180 vline~;
#X obj 112 173 +~;
#X obj 234 112 pack;
#X obj 209 84 random;
#X obj 205 53 bng 15 250 50 0 empty empty empty 17 7 0 10 -262144 -1
-1;
#X obj 107 221 osc~;
#X obj 104 355 outlet~;
#X obj 302 164 vline~;
#X msg 296 113 1 \$2 \, \$4 \$3 \$2;
#X msg 380 225 0 \$2;
#X obj 301 79 pack f f f f;
#X obj 298 46 r att;
#X obj 346 46 r dec;
#X obj 389 45 r sus;
#X obj 447 49 r inp1;
#X obj 404 179 pack f f;
#X obj 389 152 sel 0;
#X obj 83 107 mtof;
#X obj 118 294 *~;
#X obj 142 13 stripnote;
#X msg 232 136 \$1 \$2;
#X obj 300 13 r pitch-time;
#X connect 0 0 21 0;
#X connect 1 0 5 1;
#X connect 2 0 3 1;
#X connect 3 0 7 0;
#X connect 4 0 22 0;
#X connect 5 0 4 0;
#X connect 6 0 5 0;
#X connect 7 0 20 0;
#X connect 9 0 20 1;
#X connect 10 0 9 0;
#X connect 11 0 9 0;
#X connect 12 0 10 0;
#X connect 13 0 12 1;
#X connect 14 0 12 2;
#X connect 15 0 12 3;
#X connect 16 0 17 1;
#X connect 17 0 11 0;
#X connect 18 0 17 0;
#X connect 19 0 3 0;
#X connect 20 0 8 0;
#X connect 21 0 19 0;
#X connect 21 1 6 0;
#X connect 21 1 12 0;
#X connect 21 1 18 0;
#X connect 22 0 2 0;
#X connect 23 0 4 1;
#X restore 130 213 pd tom;
#N canvas 244 204 542 453 tom 0;
#X obj 141 -32 inlet;
#X obj 242 16 r pitch;
#X obj 208 180 vline~;
#X obj 112 173 +~;
#X obj 234 112 pack;
#X obj 209 84 random;
#X obj 205 53 bng 15 250 50 0 empty empty empty 17 7 0 10 -262144 -1
-1;
#X obj 107 221 osc~;
#X obj 104 355 outlet~;
#X obj 302 164 vline~;
#X msg 296 113 1 \$2 \, \$4 \$3 \$2;
#X msg 380 225 0 \$2;
#X obj 301 79 pack f f f f;
#X obj 298 46 r att;
#X obj 346 46 r dec;
#X obj 389 45 r sus;
#X obj 447 49 r inp1;
#X obj 404 179 pack f f;
#X obj 389 152 sel 0;
#X obj 83 107 mtof;
#X obj 118 294 *~;
#X obj 142 13 stripnote;
#X msg 232 136 \$1 \$2;
#X obj 300 13 r pitch-time;
#X connect 0 0 21 0;
#X connect 1 0 5 1;
#X connect 2 0 3 1;
#X connect 3 0 7 0;
#X connect 4 0 22 0;
#X connect 5 0 4 0;
#X connect 6 0 5 0;
#X connect 7 0 20 0;
#X connect 9 0 20 1;
#X connect 10 0 9 0;
#X connect 11 0 9 0;
#X connect 12 0 10 0;
#X connect 13 0 12 1;
#X connect 14 0 12 2;
#X connect 15 0 12 3;
#X connect 16 0 17 1;
#X connect 17 0 11 0;
#X connect 18 0 17 0;
#X connect 19 0 3 0;
#X connect 20 0 8 0;
#X connect 21 0 19 0;
#X connect 21 1 6 0;
#X connect 21 1 12 0;
#X connect 21 1 18 0;
#X connect 22 0 2 0;
#X connect 23 0 4 1;
#X restore 178 214 pd tom;
#X obj 85 169 route 1 2 3;
#X obj 76 287 /~ 3;
#X obj 77 372 outlet~;
#X obj 280 48 sel 36;
#X obj 281 84 - 24;
#X obj 281 120 mtof;
#X obj 337 188 * -1;
#X obj 277 205 phasor~;
#X obj 367 236 phasor~;
#X obj 352 120 loadbang;
#X msg 320 119 0;
#X msg 370 151 0.5;
#X obj 332 256 +~;
#X obj 331 289 -~ 1;
#X obj 325 323 *~;
#X obj 224 16 inlet~;
#X text 223 -9 Audio in;
#X text 277 17 square crasher;
#X text 128 -1 rnd pitch tom;
#X obj 329 381 outlet~;
#X obj 436 46 sel 72;
#X text 436 17 subultracheck;
#X obj 467 82 osc~ 17000;
#X obj 324 352 *~;
#X obj 436 83 tgl 15 0 empty empty empty 17 7 0 10 -262144 -1 -1 0
1;
#X obj 467 114 *~ 0.5;
#X obj 468 166 *~;
#X obj 536 82 del 1000;
#X obj 468 372 outlet~;
#X obj 599 43 sel 60;
#X obj 664 150 * -1;
#X obj 601 200 phasor~;
#X obj 694 198 phasor~;
#X obj 679 82 loadbang;
#X msg 644 114 0;
#X msg 697 113 0.5;
#X obj 656 251 +~;
#X obj 655 284 -~ 1;
#X obj 655 366 outlet~;
#X text 595 11 Наводка сети;
#X obj 756 45 sel 62;
#X obj 811 81 noise~;
#X obj 758 84 tgl 15 0 empty empty empty 17 7 0 10 -262144 -1 -1 0
1;
#X obj 879 80 r snare-volume;
#X obj 817 126 *~;
#X obj 821 161 *~;
#X obj 732 122 del 200;
#X obj 822 361 outlet~;
#X msg 321 82 1;
#X obj 361 49 sel 37;
#X msg 368 84 0;
#X obj 934 362 outlet;
#X connect 0 0 9 0;
#X connect 1 0 3 0;
#X connect 1 1 3 0;
#X connect 1 2 3 0;
#X connect 1 3 11 0;
#X connect 2 0 1 0;
#X connect 2 1 4 0;
#X connect 3 0 5 0;
#X connect 3 1 5 1;
#X connect 3 2 5 2;
#X connect 4 0 3 1;
#X connect 5 0 8 0;
#X connect 6 0 9 0;
#X connect 7 0 9 0;
#X connect 8 0 0 0;
#X connect 8 1 6 0;
#X connect 8 2 7 0;
#X connect 9 0 10 0;
#X connect 11 0 12 0;
#X connect 11 0 56 0;
#X connect 11 1 57 0;
#X connect 12 0 13 0;
#X connect 13 0 14 0;
#X connect 13 0 15 0;
#X connect 14 0 16 0;
#X connect 15 0 20 0;
#X connect 16 0 20 1;
#X connect 17 0 19 0;
#X connect 17 0 18 0;
#X connect 18 0 15 1;
#X connect 19 0 16 1;
#X connect 20 0 21 0;
#X connect 21 0 22 1;
#X connect 22 0 31 0;
#X connect 23 0 22 0;
#X connect 28 0 32 0;
#X connect 28 1 37 0;
#X connect 30 0 33 0;
#X connect 31 0 27 0;
#X connect 32 0 34 1;
#X connect 32 0 35 0;
#X connect 33 0 34 0;
#X connect 34 0 36 0;
#X connect 35 0 32 0;
#X connect 37 0 38 0;
#X connect 37 0 39 0;
#X connect 37 1 48 0;
#X connect 38 0 40 0;
#X connect 39 0 44 0;
#X connect 40 0 44 1;
#X connect 41 0 43 0;
#X connect 41 0 42 0;
#X connect 42 0 39 1;
#X connect 43 0 40 1;
#X connect 44 0 45 0;
#X connect 45 0 46 0;
#X connect 48 0 50 0;
#X connect 48 1 59 0;
#X connect 49 0 52 0;
#X connect 50 0 54 0;
#X connect 50 0 53 1;
#X connect 51 0 52 1;
#X connect 52 0 53 0;
#X connect 53 0 55 0;
#X connect 54 0 50 0;
#X connect 56 0 31 1;
#X connect 57 0 58 0;
#X connect 57 1 28 0;
#X connect 58 0 31 1;
