#N canvas 385 258 870 539 10;
#X obj 146 31 notein;
#X obj 146 70 poly 7 1;
#X obj 225 57 / 127;
#X obj 138 103 pack 0 0 0;
#X obj 138 131 route 1 2 3 4 5 6;
#X obj -131 231 unpack 0 0;
#X obj -149 273 monophonic-patch;
#X obj -20 233 unpack 0 0;
#X obj -38 275 monophonic-patch;
#X obj 86 235 unpack 0 0;
#X obj 68 277 monophonic-patch;
#X obj 195 233 unpack 0 0;
#X obj 177 275 monophonic-patch;
#X obj 302 232 unpack 0 0;
#X obj 284 274 monophonic-patch;
#X obj 424 235 unpack 0 0;
#X obj 406 277 monophonic-patch;
#X obj 531 239 unpack 0 0;
#X obj 513 281 monophonic-patch;
#X obj 201 337 /~ 7;
#X obj 201 384 outlet~;
#X connect 0 0 1 0;
#X connect 0 1 2 0;
#X connect 1 0 3 0;
#X connect 1 1 3 1;
#X connect 1 2 3 2;
#X connect 2 0 1 1;
#X connect 3 0 4 0;
#X connect 4 0 5 0;
#X connect 4 1 7 0;
#X connect 4 2 9 0;
#X connect 4 3 11 0;
#X connect 4 4 13 0;
#X connect 4 5 15 0;
#X connect 4 6 17 0;
#X connect 5 0 6 0;
#X connect 5 1 6 1;
#X connect 6 0 19 0;
#X connect 7 0 8 0;
#X connect 7 1 8 1;
#X connect 8 0 19 0;
#X connect 9 0 10 0;
#X connect 9 1 10 1;
#X connect 10 0 19 0;
#X connect 11 0 12 0;
#X connect 11 1 12 1;
#X connect 12 0 19 0;
#X connect 13 0 14 0;
#X connect 13 1 14 1;
#X connect 14 0 19 0;
#X connect 15 0 16 0;
#X connect 15 1 16 1;
#X connect 16 0 19 0;
#X connect 17 0 18 0;
#X connect 17 1 18 1;
#X connect 18 0 19 0;
#X connect 19 0 20 0;
