#N canvas 51 54 1315 714 10;
#N canvas 395 154 542 453 tom 1;
#X obj 141 -32 inlet;
#X obj 242 16 r pitch;
#X obj 208 180 vline~;
#X obj 112 173 +~;
#X obj 234 112 pack;
#X obj 209 84 random;
#X obj 107 221 osc~;
#X obj 104 355 outlet~;
#X obj 302 164 vline~;
#X msg 296 113 1 \$2 \, \$4 \$3 \$2;
#X msg 380 225 0 \$2;
#X obj 301 79 pack f f f f;
#X obj 298 46 r att;
#X obj 346 46 r dec;
#X obj 389 45 r sus;
#X obj 404 179 pack f f;
#X obj 389 152 sel 0;
#X obj 83 107 mtof;
#X obj 118 294 *~;
#X obj 138 43 stripnote;
#X msg 232 136 \$1 \$2;
#X obj 300 13 r pitch-time;
#X obj 209 -28 inlet;
#X msg 139 14 69;
#X obj 154 191 loadbang;
#X msg 153 214 0.25;
#X obj 190 276 bng 15 250 50 0 empty empty empty 17 7 0 10 -262144
-1 -1;
#X obj 448 49 r res;
#X connect 0 0 5 0;
#X connect 0 0 23 0;
#X connect 0 0 26 0;
#X connect 1 0 5 1;
#X connect 2 0 3 1;
#X connect 3 0 6 0;
#X connect 4 0 20 0;
#X connect 5 0 4 0;
#X connect 6 0 18 0;
#X connect 8 0 18 1;
#X connect 9 0 8 0;
#X connect 10 0 8 0;
#X connect 11 0 9 0;
#X connect 12 0 11 1;
#X connect 13 0 11 2;
#X connect 14 0 11 3;
#X connect 15 0 10 0;
#X connect 16 0 15 0;
#X connect 17 0 3 0;
#X connect 18 0 7 0;
#X connect 19 0 17 0;
#X connect 19 1 11 0;
#X connect 19 1 16 0;
#X connect 20 0 2 0;
#X connect 21 0 4 1;
#X connect 22 0 19 1;
#X connect 23 0 19 0;
#X connect 24 0 25 0;
#X connect 25 0 6 1;
#X connect 27 0 15 1;
#X restore 77 214 pd tom;
#X obj 290 84 sel 36;
#X obj 290 121 - 24;
#X obj 290 157 mtof;
#X obj 346 225 * -1;
#X obj 286 242 phasor~;
#X obj 376 273 phasor~;
#X obj 361 157 loadbang;
#X msg 329 156 0;
#X msg 379 188 0.5;
#X obj 341 293 +~;
#X obj 340 326 -~ 1;
#X obj 329 359 *~;
#X text 236 270 Audio in;
#X text 281 53 square crasher;
#X text 66 1 rnd pitch tom;
#X obj 533 54 sel 72;
#X text 520 11 subultracheck;
#X obj 558 199 osc~ 17000;
#X obj 328 388 *~;
#X obj 559 260 *~ 0.5;
#X obj 561 292 *~;
#X obj 590 135 del 1000;
#X obj 683 37 sel 60;
#X obj 786 99 loadbang;
#X msg 753 135 0;
#X msg 806 134 0.5;
#X obj 742 249 +~;
#X obj 741 282 -~ 1;
#X text 679 5 Наводка сети;
#X obj 902 25 sel 62;
#X obj 909 124 noise~;
#X obj 939 300 r snare-volume;
#X obj 909 201 *~;
#X obj 908 367 *~;
#X msg 330 119 1;
#X obj 379 68 sel 37;
#X obj 346 -108 notein;
#X obj 236 300 r~ square-in;
#X obj 594 230 r us-level;
#X obj 575 -24 s mid-in;
#X obj 576 -49 pack f f;
#X obj 394 103 sel 0;
#X msg 590 171 0;
#X msg 541 131 1;
#X obj 687 198 phasor~ 60;
#X obj 780 196 phasor~ -60;
#X msg 660 111 1;
#X obj 76 335 *~;
#X obj 153 300 r vol-tom;
#X obj 742 329 *~;
#X obj 799 304 r vol-grid;
#X obj 353 484 *~;
#X obj 514 452 r vol-mix-out;
#X obj 349 508 dac~;
#X obj 742 305 *~;
#X obj 699 140 spigot;
#X obj 691 77 sel 0;
#X obj 392 132 spigot;
#X obj 112 128 spigot;
#X msg 733 78 0;
#X msg 445 96 0;
#X msg 89 82 1;
#X msg 135 83 0;
#X msg 976 87 1 \, 0 700;
#X obj 980 127 line~;
#X floatatom 484 -8 5 0 0 0 - - -;
#X obj 80 47 sel 60;
#X connect 0 0 48 0;
#X connect 1 0 2 0;
#X connect 1 0 35 0;
#X connect 1 1 36 0;
#X connect 1 1 61 0;
#X connect 2 0 3 0;
#X connect 3 0 4 0;
#X connect 3 0 5 0;
#X connect 4 0 6 0;
#X connect 5 0 10 0;
#X connect 6 0 10 1;
#X connect 7 0 9 0;
#X connect 7 0 8 0;
#X connect 8 0 5 1;
#X connect 9 0 6 1;
#X connect 10 0 11 0;
#X connect 11 0 12 1;
#X connect 12 0 19 0;
#X connect 16 0 44 0;
#X connect 16 1 23 0;
#X connect 18 0 20 0;
#X connect 19 0 52 0;
#X connect 20 0 21 0;
#X connect 21 0 52 0;
#X connect 22 0 43 0;
#X connect 23 0 47 0;
#X connect 23 1 30 0;
#X connect 23 1 60 0;
#X connect 24 0 26 0;
#X connect 24 0 25 0;
#X connect 25 0 45 1;
#X connect 26 0 46 1;
#X connect 27 0 28 0;
#X connect 28 0 55 0;
#X connect 30 0 64 0;
#X connect 31 0 33 0;
#X connect 32 0 34 1;
#X connect 33 0 34 0;
#X connect 34 0 52 0;
#X connect 35 0 19 1;
#X connect 35 0 58 1;
#X connect 36 1 16 0;
#X connect 37 0 41 0;
#X connect 37 0 66 0;
#X connect 37 0 67 0;
#X connect 37 1 41 1;
#X connect 37 1 42 0;
#X connect 37 1 57 0;
#X connect 37 1 59 0;
#X connect 37 1 59 1;
#X connect 38 0 12 0;
#X connect 39 0 20 1;
#X connect 41 0 40 0;
#X connect 42 0 58 0;
#X connect 43 0 21 1;
#X connect 44 0 21 1;
#X connect 44 0 22 0;
#X connect 45 0 27 0;
#X connect 46 0 27 1;
#X connect 47 0 55 1;
#X connect 47 0 56 1;
#X connect 48 0 52 0;
#X connect 49 0 48 1;
#X connect 50 0 52 0;
#X connect 51 0 50 1;
#X connect 52 0 54 0;
#X connect 52 0 54 1;
#X connect 53 0 52 1;
#X connect 56 0 55 1;
#X connect 57 0 56 0;
#X connect 58 0 19 1;
#X connect 59 0 0 1;
#X connect 60 0 56 1;
#X connect 61 0 58 1;
#X connect 62 0 59 1;
#X connect 63 0 59 1;
#X connect 64 0 65 0;
#X connect 65 0 33 1;
#X connect 67 0 0 0;
#X connect 67 0 62 0;
#X connect 67 1 1 0;
#X connect 67 1 63 0;
