#N canvas 51 54 1315 714 10;
#N canvas 592 260 542 453 tom 0;
#X obj 141 -32 inlet;
#X obj 242 16 r pitch;
#X obj 208 180 vline~;
#X obj 112 173 +~;
#X obj 234 112 pack;
#X obj 209 84 random;
#X obj 107 221 osc~;
#X obj 104 355 outlet~;
#X obj 302 164 vline~;
#X msg 296 113 1 \$2 \, \$4 \$3 \$2;
#X msg 380 225 0 \$2;
#X obj 301 79 pack f f f f;
#X obj 298 46 r att;
#X obj 346 46 r dec;
#X obj 389 45 r sus;
#X obj 447 49 r inp1;
#X obj 404 179 pack f f;
#X obj 389 152 sel 0;
#X obj 83 107 mtof;
#X obj 118 294 *~;
#X obj 142 13 stripnote;
#X msg 232 136 \$1 \$2;
#X obj 300 13 r pitch-time;
#X obj 209 -28 inlet;
#X connect 0 0 20 0;
#X connect 1 0 5 1;
#X connect 2 0 3 1;
#X connect 3 0 6 0;
#X connect 4 0 21 0;
#X connect 5 0 4 0;
#X connect 6 0 19 0;
#X connect 8 0 19 1;
#X connect 9 0 8 0;
#X connect 10 0 8 0;
#X connect 11 0 9 0;
#X connect 12 0 11 1;
#X connect 13 0 11 2;
#X connect 14 0 11 3;
#X connect 15 0 16 1;
#X connect 16 0 10 0;
#X connect 17 0 16 0;
#X connect 18 0 3 0;
#X connect 19 0 7 0;
#X connect 20 0 18 0;
#X connect 20 1 11 0;
#X connect 20 1 17 0;
#X connect 21 0 2 0;
#X connect 22 0 4 1;
#X restore 77 214 pd tom;
#X obj 71 38 sel 69 70 71;
#X obj 74 101 poly 3 1;
#X obj 175 51 / 127;
#X obj 76 136 pack 0 0 0;
#X obj 85 169 route 1 2 3;
#X obj 76 287 /~ 3;
#X obj 281 47 sel 36;
#X obj 281 84 - 24;
#X obj 281 120 mtof;
#X obj 337 188 * -1;
#X obj 277 205 phasor~;
#X obj 367 236 phasor~;
#X obj 352 120 loadbang;
#X msg 320 119 0;
#X msg 370 151 0.5;
#X obj 332 256 +~;
#X obj 331 289 -~ 1;
#X obj 325 323 *~;
#X text 223 -9 Audio in;
#X text 277 17 square crasher;
#X text 128 -1 rnd pitch tom;
#X obj 520 40 sel 72;
#X text 520 11 subultracheck;
#X obj 558 199 osc~ 17000;
#X obj 324 352 *~;
#X obj 559 260 *~ 0.5;
#X obj 561 292 *~;
#X obj 590 135 del 1000;
#X obj 683 37 sel 60;
#X obj 763 76 loadbang;
#X msg 730 112 0;
#X msg 783 111 0.5;
#X obj 742 249 +~;
#X obj 741 282 -~ 1;
#X text 679 5 Наводка сети;
#X obj 902 25 sel 62;
#X obj 915 62 noise~;
#X obj 983 61 r snare-volume;
#X obj 914 107 *~;
#X obj 915 143 *~;
#X msg 321 82 1;
#X obj 368 46 sel 37;
#X obj 73 5 notein;
#X obj 227 263 r~ square-in;
#X obj 594 230 r us-level;
#X obj 916 200 s~ snare;
#X obj 6 -19 s mid-in;
#X obj 66 -68 pack f f;
#X floatatom 208 25 5 0 0 0 - - -;
#X msg 71 77 69;
#X msg 115 77 70;
#X msg 154 79 71;
#N canvas 592 260 542 453 tom 0;
#X obj 141 -32 inlet;
#X obj 242 16 r pitch;
#X obj 208 180 vline~;
#X obj 112 173 +~;
#X obj 234 112 pack;
#X obj 209 84 random;
#X obj 107 221 osc~;
#X obj 104 355 outlet~;
#X obj 302 164 vline~;
#X msg 296 113 1 \$2 \, \$4 \$3 \$2;
#X msg 380 225 0 \$2;
#X obj 301 79 pack f f f f;
#X obj 298 46 r att;
#X obj 346 46 r dec;
#X obj 389 45 r sus;
#X obj 447 49 r inp1;
#X obj 404 179 pack f f;
#X obj 389 152 sel 0;
#X obj 83 107 mtof;
#X obj 118 294 *~;
#X obj 142 13 stripnote;
#X msg 232 136 \$1 \$2;
#X obj 300 13 r pitch-time;
#X obj 209 -28 inlet;
#X connect 0 0 20 0;
#X connect 1 0 5 1;
#X connect 2 0 3 1;
#X connect 3 0 6 0;
#X connect 4 0 21 0;
#X connect 5 0 4 0;
#X connect 6 0 19 0;
#X connect 8 0 19 1;
#X connect 9 0 8 0;
#X connect 10 0 8 0;
#X connect 11 0 9 0;
#X connect 12 0 11 1;
#X connect 13 0 11 2;
#X connect 14 0 11 3;
#X connect 15 0 16 1;
#X connect 16 0 10 0;
#X connect 17 0 16 0;
#X connect 18 0 3 0;
#X connect 19 0 7 0;
#X connect 20 0 18 0;
#X connect 20 1 11 0;
#X connect 20 1 17 0;
#X connect 21 0 2 0;
#X connect 22 0 4 1;
#X restore 127 217 pd tom;
#N canvas 592 260 542 453 tom 0;
#X obj 141 -32 inlet;
#X obj 242 16 r pitch;
#X obj 208 180 vline~;
#X obj 112 173 +~;
#X obj 234 112 pack;
#X obj 209 84 random;
#X obj 107 221 osc~;
#X obj 104 355 outlet~;
#X obj 302 164 vline~;
#X msg 296 113 1 \$2 \, \$4 \$3 \$2;
#X msg 380 225 0 \$2;
#X obj 301 79 pack f f f f;
#X obj 298 46 r att;
#X obj 346 46 r dec;
#X obj 389 45 r sus;
#X obj 447 49 r inp1;
#X obj 404 179 pack f f;
#X obj 389 152 sel 0;
#X obj 83 107 mtof;
#X obj 118 294 *~;
#X obj 142 13 stripnote;
#X msg 232 136 \$1 \$2;
#X obj 300 13 r pitch-time;
#X obj 209 -28 inlet;
#X connect 0 0 20 0;
#X connect 1 0 5 1;
#X connect 2 0 3 1;
#X connect 3 0 6 0;
#X connect 4 0 21 0;
#X connect 5 0 4 0;
#X connect 6 0 19 0;
#X connect 8 0 19 1;
#X connect 9 0 8 0;
#X connect 10 0 8 0;
#X connect 11 0 9 0;
#X connect 12 0 11 1;
#X connect 13 0 11 2;
#X connect 14 0 11 3;
#X connect 15 0 16 1;
#X connect 16 0 10 0;
#X connect 17 0 16 0;
#X connect 18 0 3 0;
#X connect 19 0 7 0;
#X connect 20 0 18 0;
#X connect 20 1 11 0;
#X connect 20 1 17 0;
#X connect 21 0 2 0;
#X connect 22 0 4 1;
#X restore 174 216 pd tom;
#X obj 366 82 sel 0;
#X msg 590 171 0;
#X msg 541 131 1;
#X obj 687 198 phasor~ 60;
#X obj 780 196 phasor~ -60;
#X msg 665 95 1;
#X msg 704 92 0;
#X obj 76 335 *~;
#X obj 153 300 r vol-tom;
#X obj 742 329 *~;
#X obj 799 304 r vol-grid;
#X obj 349 448 *~;
#X obj 514 452 r vol-mix-out;
#X obj 349 508 dac~;
#X connect 0 0 6 0;
#X connect 1 0 50 0;
#X connect 1 0 0 1;
#X connect 1 1 51 0;
#X connect 1 1 53 1;
#X connect 1 2 52 0;
#X connect 1 2 54 1;
#X connect 1 3 7 0;
#X connect 2 0 4 0;
#X connect 2 1 4 1;
#X connect 2 2 4 2;
#X connect 3 0 2 1;
#X connect 4 0 5 0;
#X connect 5 0 0 0;
#X connect 5 1 53 0;
#X connect 5 2 54 0;
#X connect 6 0 62 0;
#X connect 7 0 8 0;
#X connect 7 0 41 0;
#X connect 7 1 42 0;
#X connect 8 0 9 0;
#X connect 9 0 10 0;
#X connect 9 0 11 0;
#X connect 10 0 12 0;
#X connect 11 0 16 0;
#X connect 12 0 16 1;
#X connect 13 0 15 0;
#X connect 13 0 14 0;
#X connect 14 0 11 1;
#X connect 15 0 12 1;
#X connect 16 0 17 0;
#X connect 17 0 18 1;
#X connect 18 0 25 0;
#X connect 22 0 57 0;
#X connect 22 1 29 0;
#X connect 24 0 26 0;
#X connect 25 0 66 0;
#X connect 26 0 27 0;
#X connect 27 0 66 0;
#X connect 28 0 56 0;
#X connect 29 1 36 0;
#X connect 30 0 32 0;
#X connect 30 0 31 0;
#X connect 31 0 58 1;
#X connect 32 0 59 1;
#X connect 33 0 34 0;
#X connect 34 0 64 0;
#X connect 37 0 39 0;
#X connect 38 0 39 1;
#X connect 39 0 40 0;
#X connect 40 0 46 0;
#X connect 41 0 25 1;
#X connect 42 1 22 0;
#X connect 43 0 1 0;
#X connect 43 0 48 0;
#X connect 43 0 49 0;
#X connect 43 1 3 0;
#X connect 43 1 48 1;
#X connect 43 1 55 0;
#X connect 44 0 18 0;
#X connect 45 0 26 1;
#X connect 48 0 47 0;
#X connect 50 0 2 0;
#X connect 51 0 2 0;
#X connect 52 0 2 0;
#X connect 53 0 6 0;
#X connect 54 0 6 0;
#X connect 55 0 25 1;
#X connect 56 0 27 1;
#X connect 57 0 27 1;
#X connect 57 0 28 0;
#X connect 58 0 33 0;
#X connect 59 0 33 1;
#X connect 62 0 66 0;
#X connect 63 0 62 1;
#X connect 64 0 66 0;
#X connect 65 0 64 1;
#X connect 66 0 68 0;
#X connect 66 0 68 1;
#X connect 67 0 66 1;
