#N canvas 133 148 1313 685 10;
#X obj 279 270 square-wave;
#X obj 276 323 *~;
#X obj 284 205 knob 32 32 0 127 0 0 empty empty empty 0 -8 0 8 -262144
-1 -1 0 1;
#X obj 428 -81 tgl 15 0 empty empty empty 17 7 0 10 -262144 -1 -1 0
1;
#X obj 44 46 adc~;
#X obj 530 452 dac~;
#X obj 388 73 osc~ 15000;
#X obj 445 132 vline~;
#X obj 387 150 *~;
#X obj 682 132 vline~;
#X obj 641 150 *~;
#X obj 640 100 +~;
#X obj 641 60 osc~ 43.65;
#X msg 682 98 1 0.1 \, 0.05 50 20 \, 0 10 200;
#X msg 445 99 1 1 \, 0.5 200 20 \, 0 100 200;
#X obj 730 233 noise~;
#X obj 730 271 bp~;
#X obj 804 306 vline~;
#X msg 804 272 1 0.1 \, 0.05 50 20 \, 0 10 200;
#X obj 731 308 *~;
#X msg 807 209 932;
#X msg 850 225 0.5;
#X obj 611 -30 spigot;
#X obj 833 155 loadbang;
#X obj 684 -56 tgl 15 0 empty empty empty 17 7 0 10 -262144 -1 -1 1
1;
#X msg 345 225 1;
#X msg 383 225 0;
#X obj 367 352 *~;
#X obj 320 152 del 300;
#X obj 609 28 sel 0 1 2 3 4;
#X obj 610 3 random 5;
#X obj 943 65 noise~;
#X obj 943 103 bp~;
#X obj 1017 138 vline~;
#X obj 944 140 *~;
#X obj 1046 -13 loadbang;
#X msg 1020 41 12000;
#X msg 1018 104 1 0.1 \, 0.2 500 20 \, 0 10 200;
#X msg 1063 58 80;
#X obj 396 -9 bng 15 250 50 0 empty empty empty 17 7 0 10 -262144 -1
-1;
#X msg 266 140 70;
#X obj 312 304 *~ 2;
#X obj 436 -53 metro 1000;
#X connect 0 0 41 0;
#X connect 1 0 27 0;
#X connect 2 0 0 0;
#X connect 3 0 42 0;
#X connect 4 0 1 0;
#X connect 4 1 1 0;
#X connect 6 0 8 0;
#X connect 7 0 8 1;
#X connect 8 0 5 1;
#X connect 9 0 10 1;
#X connect 9 0 11 1;
#X connect 10 0 5 1;
#X connect 11 0 10 0;
#X connect 12 0 11 0;
#X connect 13 0 9 0;
#X connect 14 0 7 0;
#X connect 15 0 16 0;
#X connect 16 0 19 0;
#X connect 17 0 19 1;
#X connect 18 0 17 0;
#X connect 19 0 5 1;
#X connect 20 0 16 1;
#X connect 21 0 16 2;
#X connect 22 0 30 0;
#X connect 23 0 20 0;
#X connect 23 0 21 0;
#X connect 24 0 22 1;
#X connect 25 0 27 1;
#X connect 26 0 27 1;
#X connect 26 0 2 0;
#X connect 27 0 5 1;
#X connect 28 0 26 0;
#X connect 29 0 40 0;
#X connect 29 0 28 0;
#X connect 29 1 14 0;
#X connect 29 2 13 0;
#X connect 29 3 18 0;
#X connect 29 4 37 0;
#X connect 30 0 29 0;
#X connect 31 0 32 0;
#X connect 32 0 34 0;
#X connect 33 0 34 1;
#X connect 34 0 5 1;
#X connect 35 0 36 0;
#X connect 35 0 38 0;
#X connect 36 0 32 1;
#X connect 37 0 33 0;
#X connect 38 0 32 2;
#X connect 40 0 2 0;
#X connect 40 0 25 0;
#X connect 41 0 1 1;
#X connect 42 0 22 0;
#X connect 42 0 39 0;
