#N canvas 1642 304 656 685 10;
#X obj 221 107 triangle-wave;
#X obj 331 108 square-wave;
#X obj 415 110 osc~;
#X obj 469 49 loadbang;
#X msg 470 86 0.25;
#X obj 220 68 r~ trngl;
#X obj 332 69 r~ sqr;
#X obj 414 69 r~ sin;
#X obj 650 81 osc~;
#X obj 650 19 r ring;
#X obj 650 50 sig~;
#X obj 557 125 expr~ if($f3 == 0 \, $v1 \, $v1*$v2);
#X obj 558 70 r~ plugRing;
#X text 214 28 triangle-wave;
#X text 331 35 sqquare;
#X text 415 18 oscillator;
#X text 540 31 ring modulation;
#X obj 221 169 s~ trnglOut;
#X obj 332 162 s~ sqrOut;
#X obj 416 161 s~ sinOut;
#X obj 558 171 s~ ringOut;
#X obj 530 335 r~ plugBase;
#X obj 627 338 r~ plugMod;
#X obj 734 305 / 100;
#X obj 734 335 pack 0 50;
#X obj 734 364 line~;
#X obj 531 399 +~;
#X obj 628 382 *~;
#X obj 531 433 cos~;
#X obj 835 331 r~ frqCarrier;
#X obj 930 320 r~ frqMod;
#X obj 835 382 +~;
#X obj 1000 321 r frqm;
#X obj 929 365 *~;
#X obj 835 423 osc~;
#X obj 836 469 s~ frqOut;
#X text 837 291 Frequenzmodulator;
#X text 526 305 Phasenmodulator;
#X text 865 32 Amplitudenmodulator;
#X obj 734 274 r phasemod;
#X obj 825 83 r~ ampcar;
#X obj 911 83 r~ ampmod;
#X obj 825 137 *~;
#X obj 530 470 s~ phasenOut;
#X obj 828 260 s~ ampmOut;
#X obj 909 135 /~ 2;
#X obj 912 169 +~ 0.5;
#X obj 915 209 *~;
#X obj 1009 84 r amp;
#X obj 56 56 inlet;
#X text 52 24 midi keyboard;
#X obj 53 289 mtof;
#X obj 53 346 s freq;
#X obj 235 478 r~ out;
#X obj 170 537 outlet~;
#X obj 130 58 inlet;
#X obj 54 242 stripnote;
#X obj 166 449 vline~;
#X msg 196 339 1 \$2 \, \$4 \$3 \$2;
#X msg 291 403 0 \$2;
#X obj 201 305 pack f f f f;
#X obj 315 357 pack f f;
#X obj 300 330 sel 0;
#X obj 170 496 *~;
#X obj 198 272 r attM;
#X obj 246 272 r decM;
#X obj 289 271 r susM;
#X obj 347 275 r resM;
#X floatatom 347 234 5 0 0 0 - - -;
#X floatatom 388 237 5 0 0 0 - - -;
#X floatatom 436 242 5 0 0 0 - - -;
#X floatatom 472 243 5 0 0 0 - - -;
#X connect 0 0 17 0;
#X connect 1 0 18 0;
#X connect 2 0 19 0;
#X connect 3 0 4 0;
#X connect 4 0 2 1;
#X connect 5 0 0 0;
#X connect 6 0 1 0;
#X connect 7 0 2 0;
#X connect 8 0 11 1;
#X connect 9 0 10 0;
#X connect 9 0 11 2;
#X connect 10 0 8 0;
#X connect 11 0 20 0;
#X connect 12 0 11 0;
#X connect 21 0 26 0;
#X connect 22 0 27 0;
#X connect 23 0 24 0;
#X connect 24 0 25 0;
#X connect 25 0 27 1;
#X connect 26 0 28 0;
#X connect 27 0 26 1;
#X connect 28 0 43 0;
#X connect 29 0 31 0;
#X connect 30 0 33 0;
#X connect 31 0 34 0;
#X connect 32 0 33 1;
#X connect 33 0 31 1;
#X connect 34 0 35 0;
#X connect 39 0 23 0;
#X connect 40 0 42 0;
#X connect 41 0 45 0;
#X connect 42 0 44 0;
#X connect 45 0 46 0;
#X connect 46 0 47 0;
#X connect 47 0 42 1;
#X connect 48 0 47 1;
#X connect 49 0 56 0;
#X connect 51 0 52 0;
#X connect 53 0 63 1;
#X connect 55 0 56 1;
#X connect 55 0 62 0;
#X connect 56 0 51 0;
#X connect 56 1 60 0;
#X connect 57 0 63 0;
#X connect 58 0 57 0;
#X connect 59 0 57 0;
#X connect 60 0 58 0;
#X connect 61 0 59 0;
#X connect 62 0 61 0;
#X connect 63 0 54 0;
#X connect 64 0 60 1;
#X connect 64 0 68 0;
#X connect 65 0 60 2;
#X connect 65 0 69 0;
#X connect 66 0 60 3;
#X connect 66 0 70 0;
#X connect 67 0 61 1;
#X connect 67 0 71 0;
