#N canvas 333 153 1053 575 10;
#X obj 91 117 triangle-wave;
#X obj 201 118 square-wave;
#X obj 285 120 osc~;
#X obj 339 59 loadbang;
#X msg 340 96 0.25;
#X obj 90 78 r~ trngl;
#X obj 202 79 r~ sqr;
#X obj 284 79 r~ sin;
#X obj 520 91 osc~;
#X obj 520 29 r ring;
#X obj 520 60 sig~;
#X obj 427 135 expr~ if($f3 == 0 \, $v1 \, $v1*$v2);
#X obj 428 80 r~ plugRing;
#X text 84 38 triangle-wave;
#X text 199 40 sqquare;
#X text 285 28 oscillator;
#X text 410 41 ring modulation;
#X obj 91 179 s~ trnglOut;
#X obj 202 172 s~ sqrOut;
#X obj 286 171 s~ sinOut;
#X obj 428 181 s~ ringOut;
#X obj 295 259 r ampm;
#X obj 91 455 s~ ampmOut;
#X obj 91 320 r~ plugBase;
#X obj 188 323 r~ plugMod;
#X obj 295 290 / 100;
#X obj 295 320 pack 0 50;
#X obj 295 349 line~;
#X obj 92 384 +~;
#X obj 189 367 *~;
#X obj 92 418 cos~;
#X obj 396 316 r~ frqCarrier;
#X obj 491 314 r~ frqMod;
#X obj 396 367 +~;
#X obj 561 315 r frqm;
#X obj 490 359 *~;
#X obj 396 408 osc~;
#X obj 397 454 s~ frqOut;
#X text 398 276 Frequenzmodulator;
#X text 87 290 Phasenmodulator;
#X connect 0 0 17 0;
#X connect 1 0 18 0;
#X connect 2 0 19 0;
#X connect 3 0 4 0;
#X connect 4 0 2 1;
#X connect 5 0 0 0;
#X connect 6 0 1 0;
#X connect 7 0 2 0;
#X connect 8 0 11 1;
#X connect 9 0 10 0;
#X connect 9 0 11 2;
#X connect 10 0 8 0;
#X connect 11 0 20 0;
#X connect 12 0 11 0;
#X connect 21 0 25 0;
#X connect 23 0 28 0;
#X connect 24 0 29 0;
#X connect 25 0 26 0;
#X connect 26 0 27 0;
#X connect 27 0 29 1;
#X connect 28 0 30 0;
#X connect 29 0 28 1;
#X connect 30 0 22 0;
#X connect 31 0 33 0;
#X connect 32 0 35 0;
#X connect 33 0 36 0;
#X connect 34 0 35 1;
#X connect 35 0 33 1;
#X connect 36 0 37 0;
