#N canvas 51 54 1315 714 10;
#N canvas 699 97 657 686 hammond 0;
#X obj 55 281 osc~;
#X obj 225 307 osc~;
#X obj 185 310 osc~;
#X obj 262 307 osc~;
#X obj 301 309 osc~;
#X obj 344 309 osc~;
#X obj 382 313 osc~;
#X obj 225 281 *~ 3;
#X obj 263 281 *~ 4;
#X obj 299 281 *~ 5;
#X obj 338 281 *~ 6;
#X obj 173 337 r ob1;
#X obj 214 336 r ob2;
#X obj 259 336 r ob3;
#X obj 305 336 r ob4;
#X obj 354 336 r ob5;
#X obj 399 336 r ob6;
#X obj 176 519 dac~;
#X obj 499 253 r vol1;
#X obj 184 398 *~;
#X obj 219 394 *~;
#X obj 252 400 *~;
#X obj 292 400 *~;
#X obj 335 399 *~;
#X obj 382 396 *~;
#X obj 183 363 sig~;
#X obj 299 366 sig~;
#X obj 226 366 sig~;
#X obj 259 369 sig~;
#X obj 350 366 sig~;
#X obj 400 371 sig~;
#X obj 504 295 r vib1;
#X obj 490 353 osc~;
#X obj 496 325 sig~;
#X obj 483 392 *~ 0.5;
#X obj 379 278 *~ 8;
#X obj 49 359 r ob0;
#X obj 69 414 *~;
#X obj 183 146 sig~;
#X obj 186 283 *~ 2;
#X obj 187 111 mtof;
#X obj 166 447 expr~ ($v1+$v2+$v3+$v4+$v5+$v6+$v7)*$f8*$v9;
#X obj 186 63 midiin;
#X connect 0 0 37 1;
#X connect 1 0 20 0;
#X connect 2 0 19 0;
#X connect 3 0 21 0;
#X connect 4 0 22 0;
#X connect 5 0 23 0;
#X connect 6 0 24 0;
#X connect 7 0 1 0;
#X connect 8 0 3 0;
#X connect 9 0 4 0;
#X connect 10 0 5 0;
#X connect 11 0 25 0;
#X connect 12 0 27 0;
#X connect 13 0 28 0;
#X connect 14 0 26 0;
#X connect 15 0 29 0;
#X connect 16 0 30 0;
#X connect 18 0 41 7;
#X connect 19 0 41 1;
#X connect 20 0 41 2;
#X connect 21 0 41 3;
#X connect 22 0 41 4;
#X connect 23 0 41 5;
#X connect 24 0 41 6;
#X connect 25 0 19 1;
#X connect 26 0 22 1;
#X connect 27 0 20 1;
#X connect 28 0 21 1;
#X connect 29 0 23 1;
#X connect 30 0 24 1;
#X connect 31 0 33 0;
#X connect 32 0 34 0;
#X connect 33 0 32 0;
#X connect 34 0 41 8;
#X connect 35 0 6 0;
#X connect 36 0 37 0;
#X connect 37 0 41 0;
#X connect 38 0 0 0;
#X connect 38 0 39 0;
#X connect 38 0 7 0;
#X connect 38 0 8 0;
#X connect 38 0 9 0;
#X connect 38 0 10 0;
#X connect 38 0 35 0;
#X connect 39 0 2 0;
#X connect 40 0 38 0;
#X connect 41 0 17 0;
#X connect 41 0 17 1;
#X connect 42 0 40 0;
#X restore 764 62 pd hammond;
#X text 162 46 Hammond organ;
#X obj 292 91 vsl 15 128 0 1 0 0 ob1 empty empty 0 -9 0 10 -262144
-1 -1 0 1;
#X obj 424 92 vsl 15 128 0 1 0 0 ob6 empty empty 0 -9 0 10 -262144
-1 -1 0 1;
#X obj 324 89 vsl 15 128 0 1 0 0 ob2 empty empty 0 -9 0 10 -262144
-1 -1 0 1;
#X obj 349 87 vsl 15 128 0 1 0 0 ob3 empty empty 0 -9 0 10 -262144
-1 -1 0 1;
#X obj 372 92 vsl 15 128 0 1 0 0 ob4 empty empty 0 -9 0 10 -262144
-1 -1 0 1;
#X obj 399 91 vsl 15 128 0 1 0 0 ob5 empty empty 0 -9 0 10 -262144
-1 -1 0 1;
#X obj 492 92 vsl 20 128 0 0.5 0 0 vol1 empty empty 0 -9 0 10 -1 -4034
-4034 0 1;
#X obj 513 36 knob 32 32 1 10 0 0 vib1 empty empty 0 -8 0 8 -262144
-1 -1 0 1;
#X obj 256 92 vsl 15 128 0 1 0 0 ob0 empty empty 0 -9 0 10 -262144
-1 -1 0 1;
#N canvas 865 255 450 300 rhodes 1;
#X obj 126 61 mtof;
#X obj 126 106 osc~;
#X obj 128 178 dac~;
#X obj 197 32 unpack f f;
#X obj 284 155 expr 1/$f1;
#X obj 313 97 line;
#X floatatom 266 66 5 0 0 0 - - -;
#X obj 263 97 b;
#X msg 310 67 0 500;
#X msg 197 13 60 0.7;
#X msg 301 7 62 0.5;
#X obj 118 142 *~;
#X connect 0 0 1 0;
#X connect 1 0 11 0;
#X connect 3 0 0 0;
#X connect 3 1 6 0;
#X connect 5 0 7 0;
#X connect 5 0 11 1;
#X connect 6 0 5 0;
#X connect 7 0 8 0;
#X connect 8 0 5 0;
#X connect 9 0 3 0;
#X connect 10 0 3 0;
#X connect 11 0 2 0;
#X connect 11 0 2 1;
#X restore 765 107 pd rhodes;
