#N canvas 726 286 450 300 10;
#X obj -7 -16 cnv 15 300 200 empty empty E-Piano 110 12 1 20 -13330
-262144 0;
#X obj 214 43 knob 32 32 0 20 0 0 p-vib empty Vibrato 0 -10 0 12 -262144
-262144 -262144 0 1;
#N canvas 54 92 1313 675 Phds 1;
#N canvas 492 266 606 500 piano 1;
#X obj 86 166 osc~;
#X obj 254 -17 inlet;
#X obj 326 -5 inlet;
#X obj 157 331 outlet~;
#X obj 155 84 mtof;
#X obj 159 287 *~;
#X obj 159 25 stripnote;
#X obj 271 232 vline~;
#X msg 301 122 1 \$2 \, \$4 \$3 \$2;
#X msg 396 186 0 \$2;
#X obj 306 88 pack f f f f;
#X obj 303 55 r att;
#X obj 351 55 r dec;
#X obj 394 54 r sus;
#X obj 452 58 r inp1;
#X obj 420 140 pack f f;
#X obj 405 113 sel 0;
#X obj 73 71 loadbang;
#X msg 61 104 0.25;
#X obj 155 163 osc~;
#X obj 161 128 * 2;
#X obj 121 207 *~ 0.25;
#X obj 99 243 +~;
#X connect 0 0 22 0;
#X connect 1 0 6 0;
#X connect 2 0 6 1;
#X connect 2 0 16 0;
#X connect 4 0 0 0;
#X connect 4 0 20 0;
#X connect 5 0 3 0;
#X connect 6 0 4 0;
#X connect 6 1 10 0;
#X connect 7 0 5 1;
#X connect 8 0 7 0;
#X connect 9 0 7 0;
#X connect 10 0 8 0;
#X connect 11 0 10 1;
#X connect 12 0 10 2;
#X connect 13 0 10 3;
#X connect 14 0 15 1;
#X connect 15 0 9 0;
#X connect 16 0 15 0;
#X connect 17 0 18 0;
#X connect 18 0 0 1;
#X connect 18 0 19 1;
#X connect 19 0 21 0;
#X connect 20 0 19 0;
#X connect 21 0 22 1;
#X connect 22 0 5 0;
#X restore 76 150 pd piano;
#X obj 320 354 outlet~;
#N canvas 51 0 1315 675 sevenvoice 0;
#X obj 309 102 poly 7 1;
#X obj 309 164 route 1 2 3 4 5 6 7;
#X obj 309 130 pack 0 0 0;
#X obj 304 252 outlet;
#X obj 363 252 outlet;
#X obj 428 252 outlet;
#X obj 489 252 outlet;
#X obj 550 252 outlet;
#X obj 191 252 outlet;
#X obj 249 252 outlet;
#X obj 360 41 inlet;
#X obj 309 41 inlet;
#X text 195 42 midi note ->;
#X text 428 41 <- midi velocity;
#X text 476 162 <- add voices here (8..16);
#X obj 415 97 / 127;
#X connect 0 0 2 0;
#X connect 0 1 2 1;
#X connect 0 2 2 2;
#X connect 1 0 8 0;
#X connect 1 1 9 0;
#X connect 1 2 3 0;
#X connect 1 3 4 0;
#X connect 1 4 5 0;
#X connect 1 5 6 0;
#X connect 1 6 7 0;
#X connect 2 0 1 0;
#X connect 10 0 15 0;
#X connect 11 0 0 0;
#X connect 15 0 0 1;
#X restore 237 45 pd sevenvoice;
#X obj 72 116 unpack 0 0;
#X obj 242 15 notein;
#X obj 149 116 unpack 0 0;
#X obj 228 117 unpack 0 0;
#X obj 299 118 unpack 0 0;
#X obj 376 119 unpack 0 0;
#X obj 446 114 unpack 0 0;
#X obj 517 112 unpack 0 0;
#X obj 276 214 /~ 7;
#X obj 391 198 r p-vol;
#X obj 390 226 sig~;
#X obj 531 228 osc~;
#X obj 648 172 sig~;
#X obj 561 249 expr~ $v1*0.5+0.5;
#X obj 314 290 expr~ $v1*$v2*$v3;
#X obj 638 128 r p-vib;
#N canvas 422 303 450 408 piano 0;
#X obj 40 177 osc~;
#X obj 154 3 inlet;
#X obj 223 6 inlet;
#X obj 157 331 outlet~;
#X obj 165 84 mtof;
#X obj 159 287 *~;
#X obj 165 41 stripnote;
#X obj 199 195 vline~;
#X msg 250 100 1 \$2 \, \$4 \$3 \$2;
#X msg 345 164 0 \$2;
#X obj 255 66 pack f f f f;
#X obj 252 33 r att;
#X obj 300 33 r dec;
#X obj 343 32 r sus;
#X obj 401 36 r inp1;
#X obj 369 118 pack f f;
#X obj 354 91 sel 0;
#X obj 73 71 loadbang;
#X msg 61 104 0.25;
#X obj 155 163 osc~;
#X obj 161 128 * 2;
#X obj 125 217 *~ 0.25;
#X obj 99 243 +~;
#X connect 0 0 22 0;
#X connect 1 0 6 0;
#X connect 2 0 6 1;
#X connect 2 0 16 0;
#X connect 4 0 0 0;
#X connect 4 0 20 0;
#X connect 5 0 3 0;
#X connect 6 0 4 0;
#X connect 6 1 10 0;
#X connect 7 0 5 1;
#X connect 8 0 7 0;
#X connect 9 0 7 0;
#X connect 10 0 8 0;
#X connect 11 0 10 1;
#X connect 12 0 10 2;
#X connect 13 0 10 3;
#X connect 14 0 15 1;
#X connect 15 0 9 0;
#X connect 16 0 15 0;
#X connect 17 0 18 0;
#X connect 18 0 0 1;
#X connect 18 0 19 1;
#X connect 19 0 21 0;
#X connect 20 0 19 0;
#X connect 21 0 22 1;
#X connect 22 0 5 0;
#X restore 157 153 pd piano;
#N canvas 422 303 450 408 piano 0;
#X obj 40 177 osc~;
#X obj 154 3 inlet;
#X obj 223 6 inlet;
#X obj 157 331 outlet~;
#X obj 165 84 mtof;
#X obj 159 287 *~;
#X obj 165 41 stripnote;
#X obj 199 195 vline~;
#X msg 250 100 1 \$2 \, \$4 \$3 \$2;
#X msg 345 164 0 \$2;
#X obj 255 66 pack f f f f;
#X obj 252 33 r att;
#X obj 300 33 r dec;
#X obj 343 32 r sus;
#X obj 401 36 r inp1;
#X obj 369 118 pack f f;
#X obj 354 91 sel 0;
#X obj 73 71 loadbang;
#X msg 61 104 0.25;
#X obj 155 163 osc~;
#X obj 161 128 * 2;
#X obj 125 217 *~ 0.25;
#X obj 99 243 +~;
#X connect 0 0 22 0;
#X connect 1 0 6 0;
#X connect 2 0 6 1;
#X connect 2 0 16 0;
#X connect 4 0 0 0;
#X connect 4 0 20 0;
#X connect 5 0 3 0;
#X connect 6 0 4 0;
#X connect 6 1 10 0;
#X connect 7 0 5 1;
#X connect 8 0 7 0;
#X connect 9 0 7 0;
#X connect 10 0 8 0;
#X connect 11 0 10 1;
#X connect 12 0 10 2;
#X connect 13 0 10 3;
#X connect 14 0 15 1;
#X connect 15 0 9 0;
#X connect 16 0 15 0;
#X connect 17 0 18 0;
#X connect 18 0 0 1;
#X connect 18 0 19 1;
#X connect 19 0 21 0;
#X connect 20 0 19 0;
#X connect 21 0 22 1;
#X connect 22 0 5 0;
#X restore 236 152 pd piano;
#N canvas 422 303 450 408 piano 0;
#X obj 40 177 osc~;
#X obj 154 3 inlet;
#X obj 223 6 inlet;
#X obj 157 331 outlet~;
#X obj 165 84 mtof;
#X obj 159 287 *~;
#X obj 165 41 stripnote;
#X obj 199 195 vline~;
#X msg 250 100 1 \$2 \, \$4 \$3 \$2;
#X msg 345 164 0 \$2;
#X obj 255 66 pack f f f f;
#X obj 252 33 r att;
#X obj 300 33 r dec;
#X obj 343 32 r sus;
#X obj 401 36 r inp1;
#X obj 369 118 pack f f;
#X obj 354 91 sel 0;
#X obj 73 71 loadbang;
#X msg 61 104 0.25;
#X obj 155 163 osc~;
#X obj 161 128 * 2;
#X obj 125 217 *~ 0.25;
#X obj 99 243 +~;
#X connect 0 0 22 0;
#X connect 1 0 6 0;
#X connect 2 0 6 1;
#X connect 2 0 16 0;
#X connect 4 0 0 0;
#X connect 4 0 20 0;
#X connect 5 0 3 0;
#X connect 6 0 4 0;
#X connect 6 1 10 0;
#X connect 7 0 5 1;
#X connect 8 0 7 0;
#X connect 9 0 7 0;
#X connect 10 0 8 0;
#X connect 11 0 10 1;
#X connect 12 0 10 2;
#X connect 13 0 10 3;
#X connect 14 0 15 1;
#X connect 15 0 9 0;
#X connect 16 0 15 0;
#X connect 17 0 18 0;
#X connect 18 0 0 1;
#X connect 18 0 19 1;
#X connect 19 0 21 0;
#X connect 20 0 19 0;
#X connect 21 0 22 1;
#X connect 22 0 5 0;
#X restore 299 152 pd piano;
#N canvas 422 303 450 408 piano 0;
#X obj 40 177 osc~;
#X obj 154 3 inlet;
#X obj 223 6 inlet;
#X obj 157 331 outlet~;
#X obj 165 84 mtof;
#X obj 159 287 *~;
#X obj 165 41 stripnote;
#X obj 199 195 vline~;
#X msg 250 100 1 \$2 \, \$4 \$3 \$2;
#X msg 345 164 0 \$2;
#X obj 255 66 pack f f f f;
#X obj 252 33 r att;
#X obj 300 33 r dec;
#X obj 343 32 r sus;
#X obj 401 36 r inp1;
#X obj 369 118 pack f f;
#X obj 354 91 sel 0;
#X obj 73 71 loadbang;
#X msg 61 104 0.25;
#X obj 155 163 osc~;
#X obj 161 128 * 2;
#X obj 125 217 *~ 0.25;
#X obj 99 243 +~;
#X connect 0 0 22 0;
#X connect 1 0 6 0;
#X connect 2 0 6 1;
#X connect 2 0 16 0;
#X connect 4 0 0 0;
#X connect 4 0 20 0;
#X connect 5 0 3 0;
#X connect 6 0 4 0;
#X connect 6 1 10 0;
#X connect 7 0 5 1;
#X connect 8 0 7 0;
#X connect 9 0 7 0;
#X connect 10 0 8 0;
#X connect 11 0 10 1;
#X connect 12 0 10 2;
#X connect 13 0 10 3;
#X connect 14 0 15 1;
#X connect 15 0 9 0;
#X connect 16 0 15 0;
#X connect 17 0 18 0;
#X connect 18 0 0 1;
#X connect 18 0 19 1;
#X connect 19 0 21 0;
#X connect 20 0 19 0;
#X connect 21 0 22 1;
#X connect 22 0 5 0;
#X restore 372 156 pd piano;
#N canvas 420 308 450 408 piano 0;
#X obj 40 177 osc~;
#X obj 154 3 inlet;
#X obj 223 6 inlet;
#X obj 157 331 outlet~;
#X obj 165 84 mtof;
#X obj 159 287 *~;
#X obj 165 41 stripnote;
#X obj 199 195 vline~;
#X msg 250 100 1 \$2 \, \$4 \$3 \$2;
#X msg 345 164 0 \$2;
#X obj 255 66 pack f f f f;
#X obj 252 33 r att;
#X obj 300 33 r dec;
#X obj 343 32 r sus;
#X obj 401 36 r inp1;
#X obj 369 118 pack f f;
#X obj 354 91 sel 0;
#X obj 73 71 loadbang;
#X msg 61 104 0.25;
#X obj 155 163 osc~;
#X obj 161 128 * 2;
#X obj 125 217 *~ 0.25;
#X obj 99 243 +~;
#X connect 0 0 22 0;
#X connect 1 0 6 0;
#X connect 2 0 6 1;
#X connect 2 0 16 0;
#X connect 4 0 0 0;
#X connect 4 0 20 0;
#X connect 5 0 3 0;
#X connect 6 0 4 0;
#X connect 6 1 10 0;
#X connect 7 0 5 1;
#X connect 8 0 7 0;
#X connect 9 0 7 0;
#X connect 10 0 8 0;
#X connect 11 0 10 1;
#X connect 12 0 10 2;
#X connect 13 0 10 3;
#X connect 14 0 15 1;
#X connect 15 0 9 0;
#X connect 16 0 15 0;
#X connect 17 0 18 0;
#X connect 18 0 0 1;
#X connect 18 0 19 1;
#X connect 19 0 21 0;
#X connect 20 0 19 0;
#X connect 21 0 22 1;
#X connect 22 0 5 0;
#X restore 440 156 pd piano;
#N canvas 422 303 450 408 piano 0;
#X obj 40 177 osc~;
#X obj 154 3 inlet;
#X obj 223 6 inlet;
#X obj 157 331 outlet~;
#X obj 165 84 mtof;
#X obj 159 287 *~;
#X obj 165 41 stripnote;
#X obj 199 195 vline~;
#X msg 250 100 1 \$2 \, \$4 \$3 \$2;
#X msg 345 164 0 \$2;
#X obj 255 66 pack f f f f;
#X obj 252 33 r att;
#X obj 300 33 r dec;
#X obj 343 32 r sus;
#X obj 401 36 r inp1;
#X obj 369 118 pack f f;
#X obj 354 91 sel 0;
#X obj 73 71 loadbang;
#X msg 61 104 0.25;
#X obj 155 163 osc~;
#X obj 161 128 * 2;
#X obj 125 217 *~ 0.25;
#X obj 99 243 +~;
#X connect 0 0 22 0;
#X connect 1 0 6 0;
#X connect 2 0 6 1;
#X connect 2 0 16 0;
#X connect 4 0 0 0;
#X connect 4 0 20 0;
#X connect 5 0 3 0;
#X connect 6 0 4 0;
#X connect 6 1 10 0;
#X connect 7 0 5 1;
#X connect 8 0 7 0;
#X connect 9 0 7 0;
#X connect 10 0 8 0;
#X connect 11 0 10 1;
#X connect 12 0 10 2;
#X connect 13 0 10 3;
#X connect 14 0 15 1;
#X connect 15 0 9 0;
#X connect 16 0 15 0;
#X connect 17 0 18 0;
#X connect 18 0 0 1;
#X connect 18 0 19 1;
#X connect 19 0 21 0;
#X connect 20 0 19 0;
#X connect 21 0 22 1;
#X connect 22 0 5 0;
#X restore 513 154 pd piano;
#X connect 0 0 11 0;
#X connect 2 0 3 0;
#X connect 2 1 5 0;
#X connect 2 2 6 0;
#X connect 2 3 7 0;
#X connect 2 4 8 0;
#X connect 2 5 9 0;
#X connect 2 6 10 0;
#X connect 3 0 0 0;
#X connect 3 1 0 1;
#X connect 4 0 2 0;
#X connect 4 1 2 1;
#X connect 5 0 19 0;
#X connect 5 1 19 1;
#X connect 6 0 20 0;
#X connect 6 1 20 1;
#X connect 7 0 21 0;
#X connect 7 1 21 1;
#X connect 8 0 22 0;
#X connect 8 1 22 1;
#X connect 9 0 23 0;
#X connect 9 1 23 1;
#X connect 10 0 24 0;
#X connect 10 1 24 1;
#X connect 11 0 17 0;
#X connect 12 0 13 0;
#X connect 13 0 17 1;
#X connect 14 0 16 0;
#X connect 15 0 14 0;
#X connect 16 0 17 2;
#X connect 17 0 1 0;
#X connect 18 0 15 0;
#X connect 19 0 11 0;
#X connect 20 0 11 0;
#X connect 21 0 11 0;
#X connect 22 0 11 0;
#X connect 23 0 11 0;
#X connect 24 0 11 0;
#X restore 240 154 pd Phds;
#X obj 112 41 knob 32 32 0 0.5 0 0 p-vol empty Volume 0 -8 0 12 -13330
-228856 -262144 0 1;
#X obj 15 124 knob 32 32 0 300 0 0 att empty empty 0 -8 0 8 -262144
-1 -1 0 1;
#X obj 55 124 knob 32 32 0 500 0 0 dec empty empty 0 -8 0 8 -262144
-1 -1 0 1;
#X obj 100 124 knob 32 32 0 1 0 0 sus empty empty 0 -8 0 8 -262144
-1 -1 0 1;
#X obj 158 122 knob 32 32 0 1000 0 0 inp1 empty empty 0 -8 0 8 -262144
-1 -1 0 1;
#X msg 25 86 1;
#X obj 248 212 dac~;
#X connect 2 0 9 0;
#X connect 2 0 9 1;
#X connect 8 0 4 0;
