#N canvas 707 87 656 685 10;
#X obj 254 34 loadbang;
#X msg 204 61 0;
#X msg 261 61 0.5;
#X obj 111 100 phasor~;
#X obj 216 98 phasor~;
#X obj 171 153 +~;
#X obj 172 181 -~ 1;
#X obj 173 231 outlet~;
#X obj 100 28 inlet~;
#X connect 0 0 2 0;
#X connect 0 0 1 0;
#X connect 1 0 3 1;
#X connect 2 0 4 1;
#X connect 3 0 5 0;
#X connect 4 0 5 1;
#X connect 5 0 6 0;
#X connect 6 0 7 0;
#X connect 8 0 3 0;
#X connect 8 0 4 0;
