#N canvas 772 221 450 455 10;
#X obj 133 127 phasor~;
#X obj 223 133 phasor~;
#X obj 179 97 * -1;
#X obj 267 69 loadbang;
#X msg 250 96 0;
#X obj 135 173 *~ 2;
#X obj 137 215 -~ 1;
#X obj 228 175 *~ 2;
#X obj 227 213 -~ 1;
#X obj 136 252 clip~ 0 1;
#X obj 229 254 clip~ 0 1;
#X obj 194 301 +~;
#X obj 194 344 outlet~;
#X obj 143 68 inlet~;
#X connect 0 0 5 0;
#X connect 1 0 7 0;
#X connect 2 0 1 0;
#X connect 3 0 4 0;
#X connect 4 0 1 1;
#X connect 4 0 0 1;
#X connect 5 0 6 0;
#X connect 6 0 9 0;
#X connect 7 0 8 0;
#X connect 8 0 10 0;
#X connect 9 0 11 0;
#X connect 10 0 11 1;
#X connect 11 0 12 0;
#X connect 13 0 2 0;
#X connect 13 0 0 0;
